<svg width="160" height="39" viewBox="0 0 160 39" fill="none" xmlns="http://www.w3.org/2000/svg">
<path d="M1 4C1 2.34315 2.16603 1 3.6044 1H156.396C157.834 1 159 2.34315 159 4V35C159 36.6569 157.834 38 156.396 38H3.6044C2.16602 38 1 36.6569 1 35V4Z" fill="black"/>
<path d="M1 4C1 2.34315 2.16603 1 3.6044 1H156.396C157.834 1 159 2.34315 159 4V35C159 36.6569 157.834 38 156.396 38H3.6044C2.16602 38 1 36.6569 1 35V4Z" stroke="#5865F2" stroke-width="2"/>
<path d="M47.6452 14.5455V24H45.9325V14.5455H47.6452ZM51.0972 19.8452V24H49.426V16.9091H51.0233V18.114H51.1064C51.2696 17.717 51.5296 17.4015 51.8866 17.1676C52.2467 16.9337 52.6914 16.8168 53.2208 16.8168C53.7101 16.8168 54.1364 16.9214 54.4996 17.1307C54.8658 17.34 55.1489 17.6431 55.349 18.0401C55.5521 18.4371 55.6521 18.9188 55.6491 19.4851V24H53.9779V19.7436C53.9779 19.2696 53.8548 18.8988 53.6086 18.631C53.3654 18.3633 53.0284 18.2294 52.5976 18.2294C52.3052 18.2294 52.0451 18.294 51.8174 18.4233C51.5927 18.5495 51.4157 18.7326 51.2865 18.9727C51.1603 19.2127 51.0972 19.5036 51.0972 19.8452ZM63.4278 16.9091L60.9026 24H59.056L56.5308 16.9091H58.3128L59.9424 22.1765H60.0162L61.6505 16.9091H63.4278ZM64.5843 24V16.9091H66.2554V24H64.5843ZM65.4244 15.9027C65.1598 15.9027 64.932 15.815 64.7412 15.6396C64.5504 15.4611 64.455 15.2472 64.455 14.9979C64.455 14.7455 64.5504 14.5316 64.7412 14.3562C64.932 14.1777 65.1598 14.0884 65.4244 14.0884C65.6922 14.0884 65.92 14.1777 66.1077 14.3562C66.2985 14.5316 66.3939 14.7455 66.3939 14.9979C66.3939 15.2472 66.2985 15.4611 66.1077 15.6396C65.92 15.815 65.6922 15.9027 65.4244 15.9027ZM71.5147 16.9091V18.2017H67.4384V16.9091H71.5147ZM68.4448 15.2102H70.1159V21.8672C70.1159 22.0919 70.1498 22.2642 70.2175 22.3842C70.2883 22.5012 70.3806 22.5812 70.4945 22.6243C70.6084 22.6674 70.7346 22.6889 70.873 22.6889C70.9777 22.6889 71.0731 22.6812 71.1593 22.6658C71.2485 22.6504 71.3162 22.6366 71.3624 22.6243L71.644 23.9308C71.5547 23.9615 71.427 23.9954 71.2608 24.0323C71.0977 24.0692 70.8977 24.0908 70.6607 24.0969C70.2421 24.1093 69.8651 24.0462 69.5297 23.9077C69.1942 23.7661 68.928 23.5476 68.731 23.2521C68.5371 22.9567 68.4417 22.5874 68.4448 22.1442V15.2102ZM75.9754 24.1385C75.2645 24.1385 74.6505 23.9908 74.1334 23.6953C73.6195 23.3968 73.224 22.9751 72.947 22.4304C72.67 21.8826 72.5315 21.2378 72.5315 20.4961C72.5315 19.7667 72.67 19.1265 72.947 18.5756C73.2271 18.0217 73.6179 17.5908 74.1196 17.283C74.6212 16.9722 75.2106 16.8168 75.8877 16.8168C76.3247 16.8168 76.7371 16.8875 77.1249 17.0291C77.5158 17.1676 77.8605 17.383 78.159 17.6754C78.4606 17.9678 78.6976 18.3402 78.8699 18.7926C79.0423 19.242 79.1285 19.7775 79.1285 20.3991V20.9116H73.3163V19.7852H77.5265C77.5235 19.4651 77.4542 19.1804 77.3188 18.9311C77.1834 18.6787 76.9941 18.4802 76.751 18.3356C76.5109 18.1909 76.2309 18.1186 75.9108 18.1186C75.5692 18.1186 75.2691 18.2017 75.0106 18.3679C74.752 18.531 74.5505 18.7464 74.4058 19.0142C74.2642 19.2789 74.1919 19.5697 74.1888 19.8867V20.87C74.1888 21.2824 74.2642 21.6364 74.415 21.9318C74.5658 22.2242 74.7767 22.4489 75.0475 22.6058C75.3183 22.7597 75.6353 22.8366 75.9985 22.8366C76.2416 22.8366 76.4617 22.8028 76.6586 22.7351C76.8556 22.6643 77.0264 22.5612 77.1711 22.4258C77.3157 22.2904 77.425 22.1226 77.4988 21.9226L79.0592 22.098C78.9607 22.5104 78.773 22.8705 78.496 23.1783C78.2221 23.483 77.8712 23.7199 77.4434 23.8892C77.0157 24.0554 76.5263 24.1385 75.9754 24.1385ZM87.3077 16.9091V18.2017H83.2314V16.9091H87.3077ZM84.2377 15.2102H85.9089V21.8672C85.9089 22.0919 85.9428 22.2642 86.0105 22.3842C86.0813 22.5012 86.1736 22.5812 86.2875 22.6243C86.4013 22.6674 86.5275 22.6889 86.666 22.6889C86.7707 22.6889 86.8661 22.6812 86.9522 22.6658C87.0415 22.6504 87.1092 22.6366 87.1554 22.6243L87.437 23.9308C87.3477 23.9615 87.22 23.9954 87.0538 24.0323C86.8907 24.0692 86.6906 24.0908 86.4537 24.0969C86.0351 24.1093 85.6581 24.0462 85.3226 23.9077C84.9872 23.7661 84.7209 23.5476 84.524 23.2521C84.3301 22.9567 84.2347 22.5874 84.2377 22.1442V15.2102ZM91.7222 24.1385C91.0297 24.1385 90.4296 23.9862 89.9218 23.6815C89.414 23.3768 89.02 22.9505 88.74 22.4027C88.463 21.8549 88.3245 21.2147 88.3245 20.4822C88.3245 19.7498 88.463 19.1081 88.74 18.5572C89.02 18.0063 89.414 17.5785 89.9218 17.2738C90.4296 16.9691 91.0297 16.8168 91.7222 16.8168C92.4147 16.8168 93.0148 16.9691 93.5226 17.2738C94.0305 17.5785 94.4229 18.0063 94.6998 18.5572C94.9799 19.1081 95.1199 19.7498 95.1199 20.4822C95.1199 21.2147 94.9799 21.8549 94.6998 22.4027C94.4229 22.9505 94.0305 23.3768 93.5226 23.6815C93.0148 23.9862 92.4147 24.1385 91.7222 24.1385ZM91.7314 22.7997C92.1069 22.7997 92.4208 22.6966 92.6732 22.4904C92.9256 22.2811 93.1133 22.0011 93.2364 21.6502C93.3626 21.2994 93.4257 20.9085 93.4257 20.4776C93.4257 20.0437 93.3626 19.6513 93.2364 19.3004C93.1133 18.9465 92.9256 18.6649 92.6732 18.4556C92.4208 18.2463 92.1069 18.1417 91.7314 18.1417C91.3467 18.1417 91.0267 18.2463 90.7712 18.4556C90.5189 18.6649 90.3296 18.9465 90.2034 19.3004C90.0803 19.6513 90.0187 20.0437 90.0187 20.4776C90.0187 20.9085 90.0803 21.2994 90.2034 21.6502C90.3296 22.0011 90.5189 22.2811 90.7712 22.4904C91.0267 22.6966 91.3467 22.7997 91.7314 22.7997ZM103.041 24H99.8368V14.5455H103.105C104.044 14.5455 104.85 14.7347 105.524 15.1133C106.201 15.4888 106.722 16.0289 107.085 16.7337C107.448 17.4384 107.629 18.2817 107.629 19.2635C107.629 20.2483 107.446 21.0947 107.08 21.8026C106.717 22.5104 106.192 23.0536 105.506 23.4322C104.823 23.8107 104.001 24 103.041 24ZM101.55 22.5181H102.958C103.616 22.5181 104.166 22.3981 104.606 22.158C105.046 21.9149 105.377 21.5533 105.598 21.0732C105.82 20.59 105.931 19.9867 105.931 19.2635C105.931 18.5402 105.82 17.9401 105.598 17.4631C105.377 16.983 105.049 16.6244 104.615 16.3874C104.184 16.1474 103.648 16.0273 103.008 16.0273H101.55V22.5181ZM109.183 24V16.9091H110.854V24H109.183ZM110.023 15.9027C109.758 15.9027 109.531 15.815 109.34 15.6396C109.149 15.4611 109.054 15.2472 109.054 14.9979C109.054 14.7455 109.149 14.5316 109.34 14.3562C109.531 14.1777 109.758 14.0884 110.023 14.0884C110.291 14.0884 110.519 14.1777 110.706 14.3562C110.897 14.5316 110.993 14.7455 110.993 14.9979C110.993 15.2472 110.897 15.4611 110.706 15.6396C110.519 15.815 110.291 15.9027 110.023 15.9027ZM118.177 18.7834L116.653 18.9496C116.61 18.7957 116.535 18.651 116.427 18.5156C116.323 18.3802 116.181 18.271 116.003 18.1879C115.824 18.1048 115.606 18.0632 115.347 18.0632C114.999 18.0632 114.707 18.1386 114.47 18.2894C114.236 18.4402 114.121 18.6357 114.124 18.8757C114.121 19.0819 114.196 19.2496 114.35 19.3789C114.507 19.5082 114.765 19.6143 115.125 19.6974L116.335 19.956C117.006 20.1006 117.504 20.3299 117.831 20.6438C118.16 20.9577 118.326 21.3686 118.329 21.8764C118.326 22.3227 118.195 22.7166 117.937 23.0582C117.681 23.3968 117.326 23.6615 116.87 23.8523C116.415 24.0431 115.892 24.1385 115.301 24.1385C114.433 24.1385 113.734 23.9569 113.205 23.5938C112.676 23.2275 112.36 22.7182 112.259 22.0657L113.888 21.9087C113.962 22.2288 114.119 22.4704 114.359 22.6335C114.599 22.7966 114.912 22.8782 115.296 22.8782C115.693 22.8782 116.012 22.7966 116.252 22.6335C116.495 22.4704 116.617 22.2688 116.617 22.0288C116.617 21.8256 116.538 21.6579 116.381 21.5256C116.227 21.3932 115.987 21.2917 115.661 21.2209L114.451 20.967C113.771 20.8254 113.268 20.5869 112.942 20.2514C112.616 19.9129 112.454 19.4851 112.457 18.968C112.454 18.531 112.573 18.1525 112.813 17.8324C113.056 17.5092 113.393 17.2599 113.824 17.0845C114.258 16.906 114.758 16.8168 115.324 16.8168C116.155 16.8168 116.809 16.9937 117.286 17.3477C117.766 17.7016 118.063 18.1802 118.177 18.7834ZM122.8 24.1385C122.092 24.1385 121.485 23.9831 120.977 23.6722C120.472 23.3614 120.083 22.9321 119.809 22.3842C119.538 21.8333 119.403 21.1993 119.403 20.4822C119.403 19.7621 119.541 19.1265 119.818 18.5756C120.095 18.0217 120.486 17.5908 120.991 17.283C121.498 16.9722 122.099 16.8168 122.791 16.8168C123.367 16.8168 123.876 16.9229 124.319 17.1353C124.765 17.3446 125.121 17.6416 125.386 18.0263C125.65 18.4079 125.801 18.8542 125.838 19.3651H124.241C124.176 19.0234 124.022 18.7388 123.779 18.511C123.539 18.2802 123.217 18.1648 122.814 18.1648C122.473 18.1648 122.172 18.2571 121.914 18.4418C121.655 18.6233 121.454 18.8849 121.309 19.2266C121.168 19.5682 121.097 19.9775 121.097 20.4545C121.097 20.9377 121.168 21.3532 121.309 21.701C121.451 22.0457 121.649 22.3119 121.905 22.4996C122.163 22.6843 122.466 22.7766 122.814 22.7766C123.06 22.7766 123.28 22.7305 123.474 22.6381C123.671 22.5427 123.836 22.4058 123.968 22.2273C124.101 22.0488 124.191 21.8318 124.241 21.5763H125.838C125.798 22.078 125.65 22.5227 125.395 22.9105C125.139 23.2952 124.792 23.5968 124.351 23.8153C123.911 24.0308 123.394 24.1385 122.8 24.1385ZM130.303 24.1385C129.611 24.1385 129.011 23.9862 128.503 23.6815C127.995 23.3768 127.601 22.9505 127.321 22.4027C127.044 21.8549 126.906 21.2147 126.906 20.4822C126.906 19.7498 127.044 19.1081 127.321 18.5572C127.601 18.0063 127.995 17.5785 128.503 17.2738C129.011 16.9691 129.611 16.8168 130.303 16.8168C130.996 16.8168 131.596 16.9691 132.104 17.2738C132.612 17.5785 133.004 18.0063 133.281 18.5572C133.561 19.1081 133.701 19.7498 133.701 20.4822C133.701 21.2147 133.561 21.8549 133.281 22.4027C133.004 22.9505 132.612 23.3768 132.104 23.6815C131.596 23.9862 130.996 24.1385 130.303 24.1385ZM130.312 22.7997C130.688 22.7997 131.002 22.6966 131.254 22.4904C131.507 22.2811 131.694 22.0011 131.817 21.6502C131.944 21.2994 132.007 20.9085 132.007 20.4776C132.007 20.0437 131.944 19.6513 131.817 19.3004C131.694 18.9465 131.507 18.6649 131.254 18.4556C131.002 18.2463 130.688 18.1417 130.312 18.1417C129.928 18.1417 129.608 18.2463 129.352 18.4556C129.1 18.6649 128.911 18.9465 128.784 19.3004C128.661 19.6513 128.6 20.0437 128.6 20.4776C128.6 20.9085 128.661 21.2994 128.784 21.6502C128.911 22.0011 129.1 22.2811 129.352 22.4904C129.608 22.6966 129.928 22.7997 130.312 22.7997ZM135.119 24V16.9091H136.74V18.0909H136.814C136.943 17.6816 137.165 17.3661 137.478 17.1445C137.795 16.9199 138.157 16.8075 138.563 16.8075C138.656 16.8075 138.759 16.8121 138.873 16.8214C138.99 16.8275 139.086 16.8383 139.163 16.8537V18.391C139.093 18.3664 138.98 18.3448 138.826 18.3263C138.676 18.3048 138.529 18.294 138.388 18.294C138.083 18.294 137.809 18.3602 137.566 18.4925C137.326 18.6218 137.137 18.8018 136.998 19.0327C136.86 19.2635 136.791 19.5297 136.791 19.8313V24H135.119ZM142.613 24.1246C142.056 24.1246 141.557 23.9815 141.117 23.6953C140.677 23.4091 140.329 22.9936 140.074 22.4489C139.819 21.9041 139.691 21.2424 139.691 20.4638C139.691 19.6759 139.82 19.0111 140.079 18.4695C140.34 17.9247 140.693 17.5138 141.136 17.2369C141.579 16.9568 142.073 16.8168 142.618 16.8168C143.033 16.8168 143.375 16.8875 143.643 17.0291C143.91 17.1676 144.123 17.3353 144.28 17.5323C144.437 17.7262 144.558 17.9093 144.644 18.0817H144.714V14.5455H146.389V24H144.746V22.8828H144.644C144.558 23.0552 144.434 23.2383 144.27 23.4322C144.107 23.623 143.892 23.7861 143.624 23.9215C143.356 24.0569 143.019 24.1246 142.613 24.1246ZM143.079 22.7536C143.433 22.7536 143.735 22.6581 143.984 22.4673C144.233 22.2734 144.423 22.0041 144.552 21.6594C144.681 21.3147 144.746 20.9131 144.746 20.4545C144.746 19.996 144.681 19.5974 144.552 19.2589C144.426 18.9203 144.238 18.6572 143.989 18.4695C143.743 18.2817 143.439 18.1879 143.079 18.1879C142.707 18.1879 142.396 18.2848 142.147 18.4787C141.898 18.6726 141.71 18.9403 141.584 19.282C141.457 19.6236 141.394 20.0144 141.394 20.4545C141.394 20.8977 141.457 21.2932 141.584 21.641C141.713 21.9857 141.902 22.258 142.151 22.4581C142.404 22.6551 142.713 22.7536 143.079 22.7536Z" fill="#5865F2"/>
<path d="M28.8155 12C28.62 12.347 28.4445 12.706 28.285 13.0729C26.7693 12.8456 25.2257 12.8456 23.7061 13.0729C23.5505 12.706 23.371 12.347 23.1756 12C21.7517 12.2433 20.3636 12.6701 19.0474 13.2724C16.4389 17.1373 15.7329 20.9025 16.0839 24.6159C17.6115 25.7447 19.3226 26.6062 21.1454 27.1566C21.5562 26.6062 21.9192 26.0199 22.2303 25.4096C21.64 25.1902 21.0696 24.915 20.5232 24.596C20.6668 24.4922 20.8064 24.3846 20.942 24.2809C24.1448 25.7885 27.8542 25.7885 31.061 24.2809C31.1966 24.3925 31.3362 24.5002 31.4798 24.596C30.9334 24.919 30.363 25.1902 29.7687 25.4136C30.0798 26.0239 30.4428 26.6102 30.8536 27.1606C32.6764 26.6102 34.3875 25.7526 35.9152 24.6239C36.3299 20.3162 35.2052 16.5829 32.9436 13.2763C31.6314 12.6741 30.2434 12.2473 28.8194 12.008L28.8155 12ZM22.677 22.3304C21.6918 22.3304 20.8742 21.437 20.8742 20.3322C20.8742 19.2273 21.6599 18.3299 22.673 18.3299C23.6861 18.3299 24.4918 19.2313 24.4759 20.3322C24.4599 21.433 23.6821 22.3304 22.677 22.3304ZM29.322 22.3304C28.3328 22.3304 27.5232 21.437 27.5232 20.3322C27.5232 19.2273 28.3089 18.3299 29.322 18.3299C30.3351 18.3299 31.1368 19.2313 31.1208 20.3322C31.1049 21.433 30.3271 22.3304 29.322 22.3304Z" fill="#5865F2"/>
</svg>
